# xmcd
#
# Track frame offsets: 
#        300
#        19410
#        34953
#        57260
#        70812
#        86430
#        101643
#        120652
#        142133
#        158339
#        176473
#        189815
#        205538
#        220037
#        240813
#        258822
#        273326
#        290467
#        307377
#
# Disc length: 4298 seconds
#
# Revision: 2
# Processed by: cddbd v1.5.2PL0 Copyright (c) Steve Scherf et al.
# Submitted via: ExactAudioCopy v1.0b1
#
DISCID=0710c613
DTITLE=Clifton Chenier - Clifton Chenier - Sings the Blues
DYEAR=1978
DGENRE=Zydeco
TTITLE0=Ain't no need of cryin'
TTITLE1=Rosemary
TTITLE2=Brown skinned woman
TTITLE3=Done got over
TTITLE4=Gone a la maison
TTITLE5=Be my chauffeur
TTITLE6=My little angel
TTITLE7=Paper in my shoe
TTITLE8=Blues after hours
TTITLE9=Trouble in mind
TTITLE10=In the mood
TTITLE11=Worried life blues
TTITLE12=Grand prix
TTITLE13=Hungry man blues
TTITLE14=Falksy girl
TTITLE15=Easy, easy baby
TTITLE16=Tante na na
TTITLE17=Do right sometime
TTITLE18=Highway blues
EXTD=
EXTT0=
EXTT1=
EXTT2=
EXTT3=
EXTT4=
EXTT5=
EXTT6=
EXTT7=
EXTT8=
EXTT9=
EXTT10=
EXTT11=
EXTT12=
EXTT13=
EXTT14=
EXTT15=
EXTT16=
EXTT17=
EXTT18=
PLAYORDER=
